<svg width="32" height="32" viewBox="0 0 32 32" fill="none" xmlns="http://www.w3.org/2000/svg">
<path d="M22.6667 12H9.33334C8.97972 12 8.64058 12.1405 8.39053 12.3905C8.14048 12.6406 8 12.9797 8 13.3333C8 13.6869 8.14048 14.0261 8.39053 14.2761C8.64058 14.5262 8.97972 14.6667 9.33334 14.6667H22.6667C23.0203 14.6667 23.3594 14.5262 23.6095 14.2761C23.8595 14.0261 24 13.6869 24 13.3333C24 12.9797 23.8595 12.6406 23.6095 12.3905C23.3594 12.1405 23.0203 12 22.6667 12ZM17.3333 17.3333H9.33334C8.97972 17.3333 8.64058 17.4738 8.39053 17.7238C8.14048 17.9739 8 18.313 8 18.6667C8 19.0203 8.14048 19.3594 8.39053 19.6095C8.64058 19.8595 8.97972 20 9.33334 20H17.3333C17.687 20 18.0261 19.8595 18.2761 19.6095C18.5262 19.3594 18.6667 19.0203 18.6667 18.6667C18.6667 18.313 18.5262 17.9739 18.2761 17.7238C18.0261 17.4738 17.687 17.3333 17.3333 17.3333ZM16 2.66666C14.249 2.66666 12.5152 3.01153 10.8976 3.6816C9.27988 4.35166 7.81003 5.33379 6.57191 6.5719C4.07143 9.07238 2.66667 12.4638 2.66667 16C2.65501 19.0788 3.72106 22.0647 5.68 24.44L3.01334 27.1067C2.82833 27.2942 2.703 27.5323 2.65317 27.7909C2.60333 28.0496 2.63123 28.3172 2.73334 28.56C2.84408 28.7999 3.02361 29.0015 3.24913 29.1392C3.47466 29.2769 3.73601 29.3444 4 29.3333H16C19.5362 29.3333 22.9276 27.9286 25.4281 25.4281C27.9286 22.9276 29.3333 19.5362 29.3333 16C29.3333 12.4638 27.9286 9.07238 25.4281 6.5719C22.9276 4.07141 19.5362 2.66666 16 2.66666ZM16 26.6667H7.21334L8.45334 25.4267C8.70167 25.1768 8.84106 24.8389 8.84106 24.4867C8.84106 24.1344 8.70167 23.7965 8.45334 23.5467C6.70745 21.8027 5.62024 19.5074 5.37693 17.0517C5.13361 14.5961 5.74926 12.132 7.11897 10.0794C8.48869 8.02671 10.5277 6.51247 12.8887 5.79462C15.2497 5.07677 17.7865 5.19973 20.067 6.14254C22.3474 7.08535 24.2305 8.78969 25.3953 10.9652C26.56 13.1407 26.9345 15.6527 26.4548 18.0733C25.9752 20.494 24.6711 22.6734 22.7647 24.2403C20.8584 25.8072 18.4677 26.6647 16 26.6667Z" fill="#FEFEFE"/>
</svg>
