<svg width="178" height="37" viewBox="0 0 178 37" fill="none" xmlns="http://www.w3.org/2000/svg">
<path d="M17.266 4.048H4.346V10.584H13.048L16.278 13.852V23.694L13.048 27H3.852L0.584 23.694V21.072L4.346 17.462V23.694H12.516V13.852H3.852L0.584 10.584V4.048L3.852 0.741998H13.96L17.266 4.048ZM35.6072 27H25.3092L22.0412 23.694V10.584L25.3092 7.278H32.3392L35.6072 10.584V17.158L32.3392 20.426H26.2592L29.6032 17.158H31.8832V10.584H25.8032V23.694H35.6072V27ZM44.4348 4.048H40.6728V0.286H44.4348V4.048ZM44.4348 33.574L41.1288 36.842H35.9988L39.3808 33.574H40.6728V10.204L44.4348 6.366V33.574ZM64.2186 23.694L60.9506 27H53.9206L50.6526 23.694V10.584L53.9206 7.278H60.9506L64.2186 10.584V23.694ZM60.4946 23.694V10.584H54.4146V23.694H60.4946ZM84.0068 27H80.2828V10.584H74.2028V27H70.4408V7.278H74.2028V10.128L76.9768 7.278H80.7388L84.0068 10.584V27ZM104.505 7.278L101.237 10.584H93.2565V23.694H99.3365V13.852H103.099V33.574L99.8305 36.842H89.0385L92.2685 33.574H99.3365V24.112L95.5745 27H92.8005L89.4945 23.694V10.584L92.8005 7.278H104.505ZM117.401 13.852L114.171 17.158H106.191L109.421 13.852H117.401ZM143.469 26.962H139.707V6.404L142.063 4.086H138.985L133.931 13.852H131.195L126.331 4.086H123.291L125.647 6.404V26.962H121.885V0.741998H128.611L132.525 9.368H132.981L136.971 0.741998H143.469V26.962ZM166.939 23.694L163.633 27H153.791L150.523 23.694V4.048L153.791 0.741998H163.633L166.939 4.048V23.694ZM163.177 23.694V4.048H154.285V23.694H163.177ZM177.674 27H173.912V0.741998H177.674V27Z" fill="#FEFEFE"/>
</svg>
