<svg width="24" height="24" viewBox="0 0 24 24" fill="none" xmlns="http://www.w3.org/2000/svg">
<path fill-rule="evenodd" clip-rule="evenodd" d="M11.9988 4.41935C13.0512 3.35948 14.4091 2.98199 15.7114 3.00084C18.8415 3.04613 22.0007 5.60046 22.0007 9.30073C22.0007 12.86 19.7242 15.8232 17.4725 17.8378C16.3333 18.8571 15.1648 19.6663 14.2158 20.2236C13.7417 20.5021 13.3143 20.7224 12.9655 20.8758C12.7918 20.9523 12.6287 21.016 12.4835 21.0621C12.3571 21.1021 12.179 21.1507 12.0004 21.1507C11.8218 21.1507 11.6437 21.1021 11.5174 21.0621C11.3721 21.016 11.2091 20.9523 11.0353 20.8758C10.6866 20.7224 10.2592 20.5021 9.78501 20.2236C8.83606 19.6663 7.66758 18.8571 6.5283 17.8378C4.27667 15.8232 2.00012 12.86 2.00012 9.30073C2.00012 5.60921 5.15199 3.00076 8.3003 3.00076C9.5673 3.00076 10.9382 3.36154 11.9988 4.41935ZM15.6897 4.50068C14.4919 4.48335 13.3757 4.88999 12.6244 6.0168C12.4853 6.22544 12.2512 6.35077 12.0004 6.35077C11.7497 6.35077 11.5155 6.22545 11.3764 6.0168C10.6297 4.8968 9.49318 4.50076 8.3003 4.50076C5.89843 4.50076 3.50012 6.51731 3.50012 9.30073C3.50012 12.2165 5.38621 14.8032 7.52847 16.7199C8.58614 17.6662 9.67241 18.4179 10.5446 18.9301C10.981 19.1864 11.3558 19.378 11.6394 19.5028C11.7818 19.5655 11.8925 19.6074 11.9708 19.6323C11.982 19.6358 11.9919 19.6388 12.0004 19.6413C12.009 19.6388 12.0188 19.6358 12.03 19.6323C12.1084 19.6074 12.219 19.5655 12.3614 19.5028C12.645 19.378 13.0198 19.1864 13.4562 18.9301C14.3284 18.4179 15.4147 17.6662 16.4724 16.7199C18.6146 14.8032 20.5007 12.2165 20.5007 9.30073C20.5007 6.52605 18.1097 4.5357 15.6897 4.50068Z" fill="#E99090"/>
</svg>
