<svg width="30" height="31" viewBox="0 0 30 31" fill="none" xmlns="http://www.w3.org/2000/svg">
<path d="M24.3 17.1389C24.025 17.1389 23.7375 17.0514 23.4625 16.9889C22.9056 16.8662 22.3583 16.7032 21.825 16.5014C21.2451 16.2904 20.6077 16.3014 20.0354 16.5321C19.4631 16.7629 18.9964 17.1972 18.725 17.7514L18.45 18.3139C17.2325 17.6366 16.1137 16.7954 15.125 15.8139C14.1435 14.8251 13.3023 13.7064 12.625 12.4889L13.15 12.1389C13.7042 11.8675 14.1385 11.4008 14.3692 10.8285C14.6 10.2562 14.611 9.61876 14.4 9.03887C14.2015 8.5044 14.0387 7.95737 13.9125 7.40137C13.85 7.12637 13.8 6.83887 13.7625 6.55137C13.6107 5.6709 13.1495 4.87355 12.462 4.30292C11.7745 3.73229 10.9059 3.42588 10.0125 3.43887H6.2625C5.72379 3.43382 5.19032 3.54489 4.69839 3.76454C4.20647 3.98418 3.76764 4.30724 3.41179 4.71173C3.05594 5.11621 2.79142 5.59262 2.63624 6.10852C2.48106 6.62442 2.43885 7.1677 2.5125 7.70137C3.17843 12.9381 5.57004 17.8037 9.30957 21.5297C13.0491 25.2556 17.9234 27.6295 23.1625 28.2764H23.6375C24.5593 28.2777 25.4493 27.9395 26.1375 27.3264C26.533 26.9727 26.8489 26.5391 27.0643 26.0543C27.2798 25.5694 27.39 25.0444 27.3875 24.5139V20.7639C27.3722 19.8956 27.056 19.0596 26.4929 18.3985C25.9298 17.7373 25.1548 17.2922 24.3 17.1389V17.1389ZM24.925 24.6389C24.9248 24.8164 24.8868 24.9918 24.8135 25.1534C24.7402 25.315 24.6333 25.4592 24.5 25.5764C24.3607 25.6976 24.1975 25.7881 24.0208 25.842C23.8442 25.8958 23.6582 25.9118 23.475 25.8889C18.7936 25.2886 14.4453 23.147 11.1159 19.8017C7.7865 16.4565 5.66552 12.098 5.0875 7.41387C5.06761 7.23077 5.08504 7.04554 5.13876 6.86936C5.19247 6.69319 5.28134 6.52973 5.4 6.38887C5.51714 6.25554 5.66133 6.14867 5.82298 6.07539C5.98462 6.00211 6.16002 5.9641 6.3375 5.96387H10.0875C10.3782 5.95741 10.662 6.05247 10.8902 6.23271C11.1183 6.41295 11.2765 6.66709 11.3375 6.95137C11.3875 7.29304 11.45 7.63054 11.525 7.96387C11.6694 8.6228 11.8616 9.27035 12.1 9.90137L10.35 10.7139C10.2004 10.7825 10.0658 10.8801 9.95395 11.0009C9.84212 11.1217 9.75525 11.2634 9.69834 11.4179C9.64143 11.5723 9.61559 11.7365 9.62231 11.901C9.62903 12.0655 9.66818 12.2271 9.7375 12.3764C11.5365 16.2298 14.6341 19.3274 18.4875 21.1264C18.7918 21.2514 19.1332 21.2514 19.4375 21.1264C19.5934 21.0706 19.7367 20.9844 19.859 20.8729C19.9813 20.7613 20.0802 20.6265 20.15 20.4764L20.925 18.7264C21.5712 18.9575 22.2307 19.1495 22.9 19.3014C23.2333 19.3764 23.5708 19.4389 23.9125 19.4889C24.1968 19.5499 24.4509 19.708 24.6312 19.9362C24.8114 20.1643 24.9065 20.4482 24.9 20.7389L24.925 24.6389Z" fill="#F66B6B"/>
</svg>
