<svg width="24" height="24" viewBox="0 0 24 24" fill="none" xmlns="http://www.w3.org/2000/svg">
<path d="M15.7114 3.00081C14.4091 2.98196 13.0512 3.35945 11.9988 4.41932C10.9382 3.36151 9.5673 3.00073 8.3003 3.00073C5.15199 3.00073 2.00012 5.60918 2.00012 9.3007C2.00012 12.86 4.27667 15.8232 6.5283 17.8378C7.66758 18.8571 8.83606 19.6663 9.78501 20.2236C10.2592 20.502 10.6866 20.7223 11.0353 20.8758C11.2091 20.9522 11.3721 21.016 11.5174 21.062C11.6437 21.1021 11.8218 21.1507 12.0004 21.1507C12.179 21.1507 12.3571 21.1021 12.4835 21.062C12.6287 21.016 12.7918 20.9522 12.9655 20.8758C13.3143 20.7223 13.7417 20.502 14.2158 20.2236C15.1648 19.6663 16.3333 18.8571 17.4725 17.8378C19.7242 15.8232 22.0007 12.86 22.0007 9.3007C22.0007 5.60043 18.8415 3.0461 15.7114 3.00081Z" fill="#E99090"/>
</svg>
